# xmcd
#
# Track frame offsets:
#	150
#	44809
#	52311
#
# Disc length: 705 seconds
#
# Revision: 0
# Processed by: cddbd v1.5.1PL2 Copyright (c) Steve Scherf et al.
# Submitted via: audiograbber 1.83.01
#
DISCID=2d02bf03
DTITLE=Shakira - Shakira
DYEAR=1900
DGENRE=R&B
TTITLE0=Daten - CD
TTITLE1=Daten - CD
TTITLE2=Daten - CD
EXTD=
EXTT0=
EXTT1=
EXTT2=
PLAYORDER=
